# xmcd
#
# Track frame offsets: 
#        150
#        18818
#        39187
#        54123
#        68063
#        85307
#        98207
#        118454
#        134496
#        149056
#        165537
#        184769
#
# Disc length: 2766 seconds
#
# Revision: 0
# Processed by: cddbd v1.5.2PL0 Copyright (c) Steve Scherf et al.
# Submitted via: ExactAudioCopy v1.3
#
DISCID=a20acc0c
DTITLE=Luk De Graaff - Mono
DYEAR=2019
DGENRE=Blues
TTITLE0=The Waiting
TTITLE1=The Last Train
TTITLE2=Days In The Sun
TTITLE3=Ragged Old Soul
TTITLE4=My Baby's Mind
TTITLE5=Who's That At Your Table
TTITLE6=Searching
TTITLE7=The Chosen Ones
TTITLE8=March To Wonderland
TTITLE9=Move Me
TTITLE10=Baby Ruth
TTITLE11=Go Down Slow
EXTD=
EXTT0=
EXTT1=
EXTT2=
EXTT3=
EXTT4=
EXTT5=
EXTT6=
EXTT7=
EXTT8=
EXTT9=
EXTT10=
EXTT11=
PLAYORDER=
